<svg xmlns="http://www.w3.org/2000/svg" width="131" height="50" viewBox="0 0 131 50"><switch><g><g fill="#FFF"><path d="M84.2 48.1c.8.5 1.9.9 3.3.9 2.3 0 3.9-1.2 3.9-3.2 0-3.7-5.2-3.4-5.2-5.9 0-1.2 1-1.6 2-1.6.9 0 1.8.2 2.6.7v-1.5c-.6-.3-1.6-.6-2.7-.6-2.3 0-3.6 1.4-3.6 3.1 0 3.5 5.2 3.2 5.2 5.9 0 1.3-1.1 1.7-2.3 1.7-1.1 0-2-.4-2.6-.8l-.6 1.3zm-2.9-1.2c-.8.4-1.7.8-2.8.8-2.6 0-4.2-1.9-4.2-4.7 0-2.6 1.6-4.7 4.3-4.7 1.2 0 2.1.3 2.9.8v-1.5c-.6-.3-1.7-.6-3-.6-3.6 0-6 2.7-6 6.1 0 3.5 2.1 5.9 5.7 5.9 1.1 0 2.3-.2 3.5-.9l-.4-1.2zm-13.7 1.9h1.6V37h-1.6v11.8zm-7.8 0h1.6V38.4h3.3l.5-1.4h-8.7v1.4h3.4v10.4zm-10.4 0H51v-4.7l3.9-7.1h-1.7l-2.9 5.6-3-5.6h-1.8l3.9 7.1v4.7zm-10.1 0h5.9v-1.4h-4.3V37h-1.6v11.8zm-9.6-4.4l1.1-3.1c.4-1 .6-1.6.7-2 .1.4.3 1 .7 2l1.1 3.1h-3.6zm-3.3 4.4h1.7l1.1-3.1h4.6l1.1 3.1h1.7L32.1 37h-1.2l-4.5 11.8zm-2.7 0V37h-1.6v9.1c-.4-.6-.9-1.3-1.6-2.2l-5.3-7h-1.5v11.8h1.6v-7.4c0-.9 0-1.4-.1-2 .4.6.9 1.3 1.6 2.1l5.5 7.2h1.4zM4.1 44.4l1.1-3.1c.4-1 .6-1.6.7-2 .1.4.3 1 .7 2l1.1 3.1H4.1zM.8 48.8h1.7l1.1-3.1h4.6l1.1 3.1H11L6.4 37H5.3L.8 48.8zM32.4 26.3c-1.9-.2-1.8-1.2-1.9-3.2-.4-5.7-.4-13.1-.5-17.3 0-2.8.3-3.5 2.8-3.8h.8c.2-.2.2-.8 0-1-1.2.1-2.5.1-3.5.1-.8 0-1.6 0-3-.1-.1 1.8-1.2 4-3 7.6l-3.7 7.6c-1 2-2 4.1-3.1 6h-.1c-1-1.7-1.8-3.6-2.7-5.4L10 7.5C8.7 5 7.7 2.5 7.9 1c-1.3.1-2.4.1-3.3.1-1 0-1.9 0-3.1-.1-.4.2-.4.8-.2 1l.6.1c2.5.4 2.8.9 2.7 3.4-.1 2.2-.2 5.5-.4 8.8-.2 3.9-.4 6.1-.7 8.7-.2 2.8-.8 3.1-2.5 3.3l-.9.1c-.2.2-.2.8.1 1 1.4-.1 2.8-.1 4-.1 1.5 0 3.1 0 4.4.1.3-.1.3-.8 0-1l-1.5-.1c-1.6-.1-1.8-.8-1.8-3.7 0-3.4.2-6.9.3-9.3.2-2.3.3-4.6.5-7.1h.1c.9 1.8 1.7 3.9 2.5 5.7l3.6 7.7c.9 1.9 2.8 5.8 3.5 7.9.1.1.3.2.4.2.2 0 .3 0 .4-.2.7-1.8 2.5-5.5 4.3-9l3.5-6.9c.8-1.5 2.3-4.7 2.6-5.2l.1 16.5c0 2.5 0 3.2-1.9 3.4l-1.2.1c-.2.2-.2.8.1 1 1.6-.1 3.4-.1 4.8-.1s3.1 0 4.7.1c.3-.2.3-.8.1-1l-1.3-.1zM44.9 26.7c-4.6.4-6.8-3.8-7.2-7.9-.5-5.6 2.5-7.8 5.3-8 4.4-.4 6.7 3.7 7.1 8 .5 5.3-2.2 7.6-5.2 7.9M44 9.5c-5.8 0-9.8 4.1-9.8 9.3 0 5 3.6 9 9.8 9 5.6 0 9.6-3.9 9.6-9.2.1-4.8-3.2-9.1-9.6-9.1M120 4.9c0-2.1-1.4-3.8-3.1-3.8-1.5 0-1.9 1-1.9 1.6 0 .7.5 1.1 1.1 1.1.8 0 2 .7 2 2.2 0 1.6-1.5 2.7-3 3.4-.2.3 0 .7.3.8 2.5-.6 4.6-2.6 4.6-5.3M126.8 17.8l-2.5-1.3c-1.6-.8-2.6-1.7-2.6-3.1 0-1.4.9-2.7 3.2-2.7 2.3 0 3.4 2 3.7 3.4.2.3.9.2 1-.1 0-1.7-.3-3.2-.6-3.9-1.3-.2-2.3-.6-3.7-.6-4 0-6.2 2-6.2 4.9 0 2.2 1.6 3.8 3.5 4.8l1.8.9c2.3 1.1 2.8 2.5 2.8 3.7 0 1.8-1.3 2.9-3.3 2.9-2.7 0-4.4-2.8-4.7-4.3-.3-.4-.9-.3-1 .1 0 2.1.5 3.5.8 4.1.6.4 2.1 1.2 4.6 1.2 3.9 0 6.5-1.9 6.5-5-.1-2.6-1.9-4.3-3.3-5M85.4 26.3c-3 0-3.4-1.3-3.4-3.8v-9.4c0-.9 0-1.4.2-1.6.3-.3 1.1-.4 2.4-.4 4.5 0 7.9 2.5 7.9 7.4s-2.4 7.8-7.1 7.8m5.1-15.5c-1.9-.6-3.8-.9-6-.9-3.2 0-5.4.1-7.7.2-.4.1-.4.9 0 1l1.2.2c.9.1 1 .8 1 3.4v8.4c0 2.7-.2 2.9-1.9 3.2l-.8.1c-.3.2-.2.9.1 1 1.6-.1 2.8-.1 4.1-.1.6 0 1.4 0 2.1.1.8.1 1.8.1 2.6.1 2 0 4.2-.3 6-1.2 3.2-1.6 4.8-4.5 4.8-7.6 0-3.7-1.9-6.6-5.5-7.9M113.1 10c-1.1.1-2 .1-2.8.1-.9 0-1.8 0-3-.1-.4.2-.4.8-.1 1l.8.1c1 .1.9.5.3 1.6l-1.6 2.9c-.7 1.3-1.3 2.2-1.9 3.3-.6-1-1.2-2.1-1.8-3.3l-1.5-2.8c-.6-1.2-.5-1.5.4-1.7l.6-.1c.4-.2.3-.8 0-1-1.3.1-2.2.1-3.4.1-1.4 0-2.3 0-3.7-.1-.3.1-.4.8-.1 1l1 .2c1 .2 1.4.6 2.3 2.1l2.9 5.4c1 1.8 1.1 2.1 1.1 3.4v1.5c0 2.3-.2 2.6-1.9 2.8l-1 .1c-.3.2-.2.9.1 1 1.8-.1 3-.1 4.3-.1 1.2 0 2.5 0 4.3.1.3-.1.4-.8.1-1l-1-.1c-1.7-.2-1.9-.4-1.9-2.8v-2.1c0-1.1.1-1.5 1.5-3.8l2.5-4c1.2-2 1.4-2.2 2.7-2.5l.9-.2c.3-.2.2-.9-.1-1M66.2 26.7c-4.6.4-6.8-3.8-7.2-7.9-.5-5.6 2.5-7.8 5.3-8 4.4-.4 6.7 3.7 7.1 8 .5 5.3-2.2 7.6-5.2 7.9m-.9-17.2c-5.8 0-9.8 4.1-9.8 9.3 0 5 3.6 9 9.8 9 5.6 0 9.6-3.9 9.6-9.2.1-4.8-3.2-9.1-9.6-9.1"/></g></g></switch></svg>